<?xml version="1.0" encoding="UTF-8" standalone="no"?><svg xmlns="http://www.w3.org/2000/svg" xmlns:xlink="http://www.w3.org/1999/xlink" contentStyleType="text/css" height="222px" preserveAspectRatio="none" style="width:366px;height:222px;background:#FFFFFF;" version="1.1" viewBox="0 0 366 222" width="366px" zoomAndPan="magnify"><defs/><g><g id="elem_r"><ellipse cx="246.8087" cy="43.5473" fill="#F1F1F1" rx="113.3087" ry="26.0473" style="stroke:#181818;stroke-width:0.5;"/><text fill="#000000" font-family="sans-serif" font-size="14" lengthAdjust="spacing" textLength="91" x="199.3087" y="38.2455">Recenser les</text><text fill="#000000" font-family="sans-serif" font-size="14" lengthAdjust="spacing" textLength="140" x="178.8087" y="54.5424">demandes de stage</text></g><g id="elem_d"><ellipse cx="246.8589" cy="179.5473" fill="#F1F1F1" rx="108.3589" ry="26.0473" style="stroke:#181818;stroke-width:0.5;"/><text fill="#000000" font-family="sans-serif" font-size="14" lengthAdjust="spacing" textLength="91" x="199.3589" y="174.2455">Déclarer une</text><text fill="#000000" font-family="sans-serif" font-size="14" lengthAdjust="spacing" textLength="133" x="182.3589" y="190.5424">demande de stage</text></g><!--MD5=[f651f3e16bb77f0b4fb138dbb3066638]
entity Responsable--><g id="elem_Responsable"><ellipse cx="52" cy="14" fill="#F1F1F1" rx="8" ry="8" style="stroke:#181818;stroke-width:0.5;"/><path d="M52,22 L52,49 M39,30 L65,30 M52,49 L39,64 M52,49 L65,64 " fill="none" style="stroke:#181818;stroke-width:0.5;"/><text fill="#000000" font-family="sans-serif" font-size="14" lengthAdjust="spacing" textLength="92" x="6" y="78.4951">Responsable</text></g><!--MD5=[4206b647878100e6066f92523e03a5d6]
entity Entreprise--><g id="elem_Entreprise"><ellipse cx="65" cy="150" fill="#F1F1F1" rx="8" ry="8" style="stroke:#181818;stroke-width:0.5;"/><path d="M65,158 L65,185 M52,166 L78,166 M65,185 L52,200 M65,185 L78,200 " fill="none" style="stroke:#181818;stroke-width:0.5;"/><text fill="#000000" font-family="sans-serif" font-size="14" lengthAdjust="spacing" textLength="76" x="27" y="214.4951">Entreprise</text></g><!--MD5=[acadc9fc008a89f0978ed94a4e2bf597]
link r to d--><!--MD5=[8542a250f4c14837195a7323ac7db539]
link Responsable to r--><g id="link_Responsable_r"><path d="M98.084,43.5 C108.074,43.5 118.063,43.5 128.053,43.5 " fill="none" id="Responsable-to-r" style="stroke:#181818;stroke-width:1.0;"/><polygon fill="#181818" points="133.277,43.5,124.277,39.5,128.277,43.5,124.277,47.5,133.277,43.5" style="stroke:#181818;stroke-width:1.0;"/></g><!--MD5=[122276d91f1f72c7135fb80cb99a348f]
link Entreprise to d--><g id="link_Entreprise_d"><path d="M103.0352,179.5 C113.092,179.5 123.148,179.5 133.205,179.5 " fill="none" id="Entreprise-to-d" style="stroke:#181818;stroke-width:1.0;"/><polygon fill="#181818" points="138.464,179.5,129.464,175.5,133.464,179.5,129.464,183.5,138.464,179.5" style="stroke:#181818;stroke-width:1.0;"/></g><!--MD5=[0ea7de7de3e9b87956762bfd00327c40]
@startuml
usecase r as "Recenser les \n demandes de stage"
usecase d as "Déclarer une \n demande de stage"

actor Responsable
actor Entreprise 

'Pour aligner les 2 acteurs :
r -[hidden]-> d

Responsable -> r
Entreprise -> d
@enduml

@startuml
usecase r as "Recenser les \n demandes de stage"
usecase d as "Déclarer une \n demande de stage"

actor Responsable
actor Entreprise 

r -[hidden]-> d

Responsable -> r
Entreprise -> d
@enduml

PlantUML version 1.2022.2(Sat Mar 05 16:30:19 UTC 2022)
(GPL source distribution)
Java Runtime: Java(TM) SE Runtime Environment
JVM: Java HotSpot(TM) 64-Bit Server VM
Default Encoding: UTF-8
Language: en
Country: US
--></g></svg>